<?xml version="1.0" standalone="no"?>
<!DOCTYPE svg PUBLIC "-//W3C//DTD SVG 20010904//EN"
 "http://www.w3.org/TR/2001/REC-SVG-20010904/DTD/svg10.dtd">
<svg version="1.0" xmlns="http://www.w3.org/2000/svg"
 width="256.000000pt" height="256.000000pt" viewBox="0 0 256.000000 256.000000"
 preserveAspectRatio="xMidYMid meet">

<g transform="translate(0.000000,256.000000) scale(0.100000,-0.100000)"
fill="#000000" stroke="none">
<path d="M882 2300 c-103 -27 -187 -75 -263 -150 -101 -100 -159 -221 -174
-361 -19 -184 68 -392 213 -507 l48 -38 -70 -39 c-90 -51 -237 -196 -289 -285
-21 -36 -51 -108 -68 -160 -26 -80 -32 -116 -36 -227 -5 -110 -3 -140 11 -178
20 -52 61 -90 114 -105 25 -8 241 -10 683 -8 l646 3 37 29 c62 47 76 79 76
176 l0 86 49 48 c28 28 62 75 78 110 l28 61 3 392 3 393 22 4 c12 3 50 7 83
10 34 3 92 17 130 30 106 39 139 92 93 150 -25 32 -68 34 -134 6 -25 -11 -87
-25 -138 -31 -111 -13 -162 -38 -194 -94 -22 -38 -23 -50 -23 -271 l0 -230
-72 24 c-85 28 -159 26 -235 -8 -25 -11 -46 -20 -47 -20 0 0 -1 13 -2 30 -1
37 -17 56 -65 80 l-37 19 82 83 c93 95 128 154 156 264 55 212 2 405 -154 559
-155 154 -350 208 -554 155z m296 -168 c77 -30 158 -95 202 -163 160 -248 34
-572 -250 -645 -238 -61 -481 101 -522 348 -34 206 102 414 311 474 63 19 192
11 259 -14z m-25 -997 c38 -8 94 -26 125 -41 32 -14 69 -29 84 -33 l27 -6 -30
-44 c-139 -207 -11 -484 239 -516 l52 -7 0 -44 0 -44 -622 2 -623 3 -3 86
c-14 415 353 729 751 644z m573 -165 c49 -31 74 -78 74 -140 0 -91 -39 -144
-125 -170 -112 -33 -233 77 -211 193 16 86 103 153 185 143 24 -3 59 -15 77
-26z"/>
</g>
</svg>
