<?xml version="1.0" standalone="no"?>
<!DOCTYPE svg PUBLIC "-//W3C//DTD SVG 20010904//EN"
 "http://www.w3.org/TR/2001/REC-SVG-20010904/DTD/svg10.dtd">
<svg version="1.0" xmlns="http://www.w3.org/2000/svg"
 width="256.000000pt" height="256.000000pt" viewBox="0 0 256.000000 256.000000"
 preserveAspectRatio="xMidYMid meet">

<g transform="translate(0.000000,256.000000) scale(0.100000,-0.100000)"
fill="#000000" stroke="none">
<path d="M1100 2473 c-373 -38 -712 -264 -880 -585 -79 -151 -116 -274 -129
-437 -37 -427 172 -832 543 -1055 33 -20 73 -36 88 -36 38 0 78 40 78 78 0 35
-24 61 -92 100 -218 126 -389 367 -443 627 -21 101 -21 286 -1 380 79 369 342
646 702 742 135 35 326 37 457 5 276 -69 509 -251 633 -494 35 -70 55 -88 99
-88 33 0 75 42 75 75 0 55 -104 224 -206 334 -231 249 -594 388 -924 354z"/>
<path d="M1081 1824 c-253 -68 -410 -331 -346 -579 55 -211 251 -365 465 -365
107 0 160 30 160 91 0 15 -9 37 -19 50 -18 22 -26 24 -123 24 -89 0 -110 4
-153 25 -64 31 -124 92 -156 155 -20 41 -24 65 -24 135 1 77 4 91 35 148 36
69 79 109 150 144 66 32 197 32 260 -1 72 -38 100 -62 141 -123 45 -65 82 -81
125 -53 62 40 46 108 -49 211 -118 128 -302 182 -466 138z"/>
<path d="M1930 1516 c-262 -96 -454 -171 -467 -184 l-23 -21 0 -395 0 -395
-42 15 c-110 39 -275 26 -385 -30 -175 -89 -176 -283 -1 -372 206 -105 495
-48 569 111 17 36 19 70 19 350 l0 310 353 128 c194 70 355 127 360 127 4 0 7
-72 7 -160 l0 -159 -42 15 c-110 39 -275 26 -385 -30 -175 -89 -176 -283 -1
-372 206 -105 495 -48 569 111 17 37 19 75 19 553 l0 513 -25 24 c-15 16 -35
25 -52 24 -15 -1 -228 -74 -473 -163z m390 -108 l0 -73 -353 -127 c-194 -71
-355 -128 -360 -128 -4 0 -7 33 -7 73 l0 72 348 127 c191 69 353 127 360 127
8 1 12 -20 12 -71z m-64 -716 c22 -11 46 -28 53 -36 17 -21 3 -39 -53 -69 -59
-31 -213 -31 -272 0 -56 30 -70 48 -53 69 16 19 64 45 104 55 52 14 178 3 221
-19z m-880 -320 c55 -28 70 -47 53 -68 -34 -41 -91 -58 -189 -58 -78 0 -102 3
-136 21 -56 30 -70 48 -53 69 16 19 64 45 104 55 52 14 178 3 221 -19z"/>
<path d="M1135 1506 c-101 -44 -125 -178 -46 -257 65 -65 157 -65 222 0 124
124 -15 327 -176 257z"/>
</g>
</svg>
